<?xml version="1.0" encoding="UTF-8"?>
<svg id="Layer_2" data-name="Layer 2" xmlns="http://www.w3.org/2000/svg" xmlns:xlink="http://www.w3.org/1999/xlink" viewBox="0 0 181.92 55.36">
  <defs>
    <style>
      .cls-1 {
        fill: url(#linear-gradient);
      }

      .cls-1, .cls-2, .cls-3, .cls-4 {
        stroke-width: 0px;
      }

      .cls-2 {
        fill: #fff;
      }

      .cls-3 {
        fill: #192d56;
      }

      .cls-4 {
        fill: #e51e2c;
      }
    </style>
    <linearGradient id="linear-gradient" x1="55.18" y1="20.78" x2="60.26" y2="20.78" gradientUnits="userSpaceOnUse">
      <stop offset="0" stop-color="#4daf4e"/>
      <stop offset="1" stop-color="#9aca3c"/>
    </linearGradient>
  </defs>
  <g id="Layer_1-2" data-name="Layer 1">
    <g>
      <path class="cls-2" d="M68.63,40.34h-.42v-2.75l-1.13,2.75h-.17l-1.13-2.75v2.75h-.42v-3.33h.6l1.03,2.51,1.04-2.51h.6v3.33Z"/>
      <path class="cls-2" d="M72.37,40.34h-.48l-.29-.74h-1.66l-.3.74h-.47l1.34-3.33h.52l1.34,3.33ZM71.48,39.23l-.71-1.79-.71,1.79h1.42Z"/>
      <path class="cls-2" d="M74.88,40.34h-1.97v-3.33h.42v2.96h1.55v.37Z"/>
      <path class="cls-2" d="M78.42,40.34h-.48l-.29-.74h-1.66l-.3.74h-.47l1.34-3.33h.52l1.34,3.33ZM77.53,39.23l-.71-1.79-.71,1.79h1.42Z"/>
      <path class="cls-2" d="M81.38,40.34h-.49l-.85-1.33h-.67v1.33h-.42v-3.33h1.34c.31,0,.56.09.75.28.19.18.29.43.29.73,0,.29-.08.51-.25.69-.17.17-.37.26-.62.28l.9,1.36ZM80.25,38.65c.2,0,.36-.06.48-.18s.18-.27.18-.46-.06-.34-.18-.46c-.12-.12-.28-.18-.48-.18h-.88v1.27h.88Z"/>
      <path class="cls-2" d="M82.52,40.34h-.42v-3.33h.42v3.33Z"/>
      <path class="cls-2" d="M86.26,40.34h-.48l-.29-.74h-1.66l-.3.74h-.47l1.34-3.33h.52l1.34,3.33ZM85.37,39.23l-.71-1.79-.71,1.79h1.42Z"/>
      <path class="cls-2" d="M89.71,40.34h-.52l-1.34-3.33h.47l1.12,2.88,1.12-2.88h.48l-1.34,3.33Z"/>
      <path class="cls-2" d="M93.78,40.34h-2.19v-3.33h2.19v.37h-1.77v1.08h1.74v.37h-1.74v1.15h1.77v.37Z"/>
      <path class="cls-2" d="M96.12,40.4c-.49,0-.89-.16-1.22-.48-.33-.32-.49-.74-.49-1.24s.16-.92.49-1.24c.33-.32.74-.48,1.22-.48.53,0,.96.22,1.27.66l-.35.2c-.1-.14-.23-.26-.39-.35s-.34-.13-.53-.13c-.37,0-.67.13-.92.38s-.37.58-.37.97.12.72.37.97.55.38.92.38c.19,0,.36-.04.53-.13.16-.09.29-.21.39-.35l.36.2c-.32.44-.75.66-1.27.66Z"/>
      <path class="cls-2" d="M99.27,40.34h-.42v-2.96h-1.05v-.37h2.53v.37h-1.06v2.96Z"/>
      <path class="cls-2" d="M102.37,40.4c-.49,0-.89-.16-1.2-.49-.31-.33-.46-.74-.46-1.24s.15-.91.46-1.24c.31-.33.71-.49,1.2-.49s.88.16,1.19.49c.31.33.46.74.46,1.24s-.15.91-.46,1.24c-.31.33-.71.49-1.19.49ZM102.37,40.03c.37,0,.66-.13.89-.38.22-.25.34-.58.34-.97s-.11-.72-.34-.97c-.23-.25-.52-.38-.89-.38s-.67.13-.89.38c-.22.25-.33.58-.33.97s.11.72.33.97c.22.25.52.38.89.38Z"/>
      <path class="cls-2" d="M107.2,40.34h-.49l-.85-1.33h-.67v1.33h-.42v-3.33h1.34c.31,0,.56.09.75.28.19.18.29.43.29.73,0,.29-.08.51-.25.69-.17.17-.37.26-.62.28l.9,1.36ZM106.07,38.65c.2,0,.36-.06.48-.18s.18-.27.18-.46-.06-.34-.18-.46c-.12-.12-.28-.18-.48-.18h-.88v1.27h.88Z"/>
      <path class="cls-2" d="M111.99,40.34h-.52c-.1-.09-.22-.2-.37-.35-.27.27-.59.41-.96.41-.3,0-.55-.08-.75-.24-.2-.16-.29-.39-.29-.69,0-.24.07-.43.2-.58.13-.15.31-.29.54-.41-.17-.29-.25-.54-.25-.75s.08-.4.24-.55c.16-.15.36-.22.6-.22.22,0,.41.06.54.17.14.12.21.28.21.48,0,.12-.02.23-.06.32-.04.09-.11.18-.21.26-.1.08-.18.14-.25.18s-.18.1-.32.17c.11.15.23.3.38.47.12.14.25.29.39.45.15-.22.27-.47.36-.76l.33.14c-.16.38-.32.67-.46.86.17.17.38.38.65.63ZM110.18,40.09c.25,0,.48-.11.7-.33-.22-.23-.37-.4-.46-.5-.15-.18-.29-.35-.42-.53-.16.1-.28.2-.36.31-.08.11-.13.25-.13.41,0,.2.07.36.2.47.13.12.29.17.47.17ZM109.98,37.73c0,.16.07.35.2.58.22-.11.38-.21.49-.31.11-.1.17-.23.17-.38,0-.12-.04-.21-.11-.28-.07-.07-.17-.1-.29-.1-.13,0-.24.05-.33.14-.09.09-.13.21-.13.35Z"/>
      <path class="cls-2" d="M114.44,40.34h-.42v-3.33h1.34c.32,0,.58.1.76.29s.28.43.28.71-.09.52-.28.71-.44.29-.76.29h-.93v1.33ZM115.31,38.64c.2,0,.36-.06.48-.18.12-.12.18-.27.18-.46s-.06-.34-.18-.46c-.12-.12-.28-.18-.48-.18h-.88v1.27h.88Z"/>
      <path class="cls-2" d="M119.25,40.34h-2.19v-3.33h2.19v.37h-1.77v1.08h1.74v.37h-1.74v1.15h1.77v.37Z"/>
      <path class="cls-2" d="M121.09,40.4c-.54,0-.97-.18-1.28-.53l.24-.32c.28.32.63.48,1.05.48.27,0,.47-.06.59-.17s.19-.25.19-.4c0-.12-.04-.21-.11-.29s-.17-.14-.28-.19c-.12-.04-.24-.09-.39-.12-.14-.04-.28-.08-.42-.12-.14-.04-.27-.1-.38-.16-.12-.06-.21-.15-.28-.27-.07-.12-.11-.25-.11-.42,0-.27.11-.5.33-.67.22-.17.49-.26.82-.26.5,0,.89.15,1.18.46l-.25.3c-.24-.27-.57-.4-.96-.4-.2,0-.36.05-.49.15-.13.1-.19.23-.19.38,0,.12.05.21.15.29.1.08.22.13.37.17.15.04.3.08.48.14.17.06.33.11.47.17.14.06.27.16.37.3.1.14.15.3.15.5,0,.27-.1.5-.3.7-.2.19-.51.28-.93.28Z"/>
      <path class="cls-2" d="M124.26,40.34h-.42v-2.96h-1.05v-.37h2.53v.37h-1.06v2.96Z"/>
      <path class="cls-2" d="M128.95,40.4c-.49,0-.89-.16-1.22-.48-.33-.32-.49-.74-.49-1.24s.16-.92.49-1.24c.33-.32.74-.48,1.22-.48.53,0,.96.22,1.27.66l-.35.2c-.1-.14-.23-.26-.39-.35s-.34-.13-.53-.13c-.37,0-.67.13-.92.38s-.37.58-.37.97.12.72.37.97.55.38.92.38c.19,0,.36-.04.53-.13.16-.09.29-.21.39-.35l.36.2c-.32.44-.75.66-1.27.66Z"/>
      <path class="cls-2" d="M132.37,40.4c-.49,0-.89-.16-1.2-.49-.31-.33-.46-.74-.46-1.24s.15-.91.46-1.24c.31-.33.71-.49,1.2-.49s.88.16,1.19.49c.31.33.46.74.46,1.24s-.15.91-.46,1.24c-.31.33-.71.49-1.19.49ZM132.37,40.03c.37,0,.66-.13.89-.38.22-.25.34-.58.34-.97s-.11-.72-.34-.97c-.23-.25-.52-.38-.89-.38s-.67.13-.89.38c-.22.25-.33.58-.33.97s.11.72.33.97c.22.25.52.38.89.38Z"/>
      <path class="cls-2" d="M137.54,40.34h-.4l-1.95-2.66v2.66h-.42v-3.33h.43l1.92,2.6v-2.6h.42v3.33Z"/>
      <path class="cls-2" d="M139.67,40.34h-.42v-2.96h-1.05v-.37h2.53v.37h-1.06v2.96Z"/>
      <path class="cls-2" d="M143.8,40.34h-.49l-.85-1.33h-.67v1.33h-.42v-3.33h1.34c.31,0,.56.09.75.28.19.18.29.43.29.73,0,.29-.08.51-.25.69-.17.17-.37.26-.62.28l.9,1.36ZM142.67,38.65c.2,0,.36-.06.48-.18s.18-.27.18-.46-.06-.34-.18-.46c-.12-.12-.28-.18-.48-.18h-.88v1.27h.88Z"/>
      <path class="cls-2" d="M146.05,40.4c-.49,0-.89-.16-1.19-.49-.31-.33-.46-.74-.46-1.24s.15-.91.46-1.24c.31-.33.7-.49,1.19-.49s.88.16,1.19.49c.31.33.46.74.46,1.24s-.15.91-.46,1.24c-.31.33-.71.49-1.19.49ZM146.05,40.03c.37,0,.66-.13.89-.38.22-.25.34-.58.34-.97s-.11-.72-.34-.97c-.23-.25-.52-.38-.89-.38s-.67.13-.89.38c-.22.25-.33.58-.33.97s.11.72.33.97c.22.25.52.38.89.38Z"/>
      <path class="cls-2" d="M150.42,40.34h-1.97v-3.33h.42v2.96h1.55v.37Z"/>
      <path class="cls-2" d="M153.59,40.4c-.54,0-.97-.18-1.28-.53l.24-.32c.28.32.63.48,1.05.48.27,0,.47-.06.59-.17s.19-.25.19-.4c0-.12-.04-.21-.11-.29s-.17-.14-.28-.19c-.12-.04-.24-.09-.39-.12-.14-.04-.28-.08-.42-.12-.14-.04-.27-.1-.38-.16-.12-.06-.21-.15-.28-.27-.07-.12-.11-.25-.11-.42,0-.27.11-.5.33-.67.22-.17.49-.26.82-.26.5,0,.89.15,1.18.46l-.25.3c-.24-.27-.57-.4-.96-.4-.2,0-.36.05-.49.15-.13.1-.19.23-.19.38,0,.12.05.21.15.29.1.08.22.13.37.17.15.04.3.08.48.14.17.06.33.11.47.17.14.06.27.16.37.3.1.14.15.3.15.5,0,.27-.1.5-.3.7-.2.19-.51.28-.93.28Z"/>
      <path class="cls-2" d="M155.96,40.34h-.42v-3.33h1.34c.32,0,.58.1.76.29s.28.43.28.71-.09.52-.28.71-.44.29-.76.29h-.93v1.33ZM156.83,38.64c.2,0,.36-.06.48-.18.12-.12.18-.27.18-.46s-.06-.34-.18-.46c-.12-.12-.28-.18-.48-.18h-.88v1.27h.88Z"/>
      <path class="cls-2" d="M160.77,40.34h-2.19v-3.33h2.19v.37h-1.77v1.08h1.74v.37h-1.74v1.15h1.77v.37Z"/>
      <path class="cls-2" d="M163.11,40.4c-.49,0-.89-.16-1.22-.48-.33-.32-.49-.74-.49-1.24s.16-.92.49-1.24c.33-.32.74-.48,1.22-.48.53,0,.96.22,1.27.66l-.35.2c-.1-.14-.23-.26-.39-.35s-.34-.13-.53-.13c-.37,0-.67.13-.92.38s-.37.58-.37.97.12.72.37.97.55.38.92.38c.19,0,.36-.04.53-.13.16-.09.29-.21.39-.35l.36.2c-.32.44-.75.66-1.27.66Z"/>
      <path class="cls-2" d="M165.43,40.34h-.42v-3.33h.42v3.33Z"/>
      <path class="cls-2" d="M169.17,40.34h-.48l-.29-.74h-1.66l-.3.74h-.47l1.34-3.33h.52l1.34,3.33ZM168.28,39.23l-.71-1.79-.71,1.79h1.42Z"/>
      <path class="cls-2" d="M171.68,40.34h-1.97v-3.33h.42v2.96h1.55v.37Z"/>
      <path class="cls-2" d="M172.78,40.34h-.42v-3.33h.42v3.33Z"/>
      <path class="cls-2" d="M174.75,40.4c-.54,0-.97-.18-1.28-.53l.24-.32c.28.32.63.48,1.05.48.27,0,.47-.06.59-.17s.19-.25.19-.4c0-.12-.04-.21-.11-.29s-.17-.14-.28-.19c-.12-.04-.24-.09-.39-.12-.14-.04-.28-.08-.42-.12-.14-.04-.27-.1-.38-.16-.12-.06-.21-.15-.28-.27-.07-.12-.11-.25-.11-.42,0-.27.11-.5.33-.67.22-.17.49-.26.82-.26.5,0,.89.15,1.18.46l-.25.3c-.24-.27-.57-.4-.96-.4-.2,0-.36.05-.49.15-.13.1-.19.23-.19.38,0,.12.05.21.15.29.1.08.22.13.37.17.15.04.3.08.48.14.17.06.33.11.47.17.14.06.27.16.37.3.1.14.15.3.15.5,0,.27-.1.5-.3.7-.2.19-.51.28-.93.28Z"/>
      <path class="cls-2" d="M177.91,40.34h-.42v-2.96h-1.05v-.37h2.53v.37h-1.06v2.96Z"/>
      <path class="cls-2" d="M180.69,40.4c-.54,0-.97-.18-1.28-.53l.24-.32c.28.32.63.48,1.05.48.27,0,.47-.06.59-.17s.19-.25.19-.4c0-.12-.04-.21-.11-.29s-.17-.14-.28-.19c-.12-.04-.24-.09-.39-.12-.14-.04-.28-.08-.42-.12-.14-.04-.27-.1-.38-.16-.12-.06-.21-.15-.28-.27-.07-.12-.11-.25-.11-.42,0-.27.11-.5.33-.67.22-.17.49-.26.82-.26.5,0,.89.15,1.18.46l-.25.3c-.24-.27-.57-.4-.96-.4-.2,0-.36.05-.49.15-.13.1-.19.23-.19.38,0,.12.05.21.15.29.1.08.22.13.37.17.15.04.3.08.48.14.17.06.33.11.47.17.14.06.27.16.37.3.1.14.15.3.15.5,0,.27-.1.5-.3.7-.2.19-.51.28-.93.28Z"/>
    </g>
    <g>
      <path class="cls-2" d="M69.49,31.91h-4.51V14.43h12.81v3.93h-8.31v2.73h8.12v3.93h-8.12v6.89Z"/>
      <path class="cls-2" d="M89.16,32.23c-2.73,0-4.79-.67-6.18-2.02-1.4-1.35-2.1-3.14-2.1-5.37v-10.4h4.59v10.25c0,1.07.32,1.93.96,2.58s1.55.98,2.74.98,2.07-.33,2.71-.98.96-1.52.96-2.58v-10.25h4.56v10.38c0,2.25-.69,4.05-2.08,5.4-1.39,1.34-3.44,2.02-6.14,2.02Z"/>
      <path class="cls-2" d="M121.03,31.91h-4.51v-11.37l-4.43,11.37h-1.99l-4.4-11.37v11.37h-4.51V14.43h6.26l3.64,9.49,3.67-9.49h6.26v17.48Z"/>
      <path class="cls-2" d="M129.33,31.91h-4.51V14.43h4.51v17.48Z"/>
      <path class="cls-2" d="M144.66,31.91h-11.53V14.43h4.51v13.55h7.02v3.93Z"/>
      <path class="cls-2" d="M164.63,31.91h-5.11l-.86-2.52h-6.89l-.87,2.52h-5.11l6.58-17.48h5.66l6.6,17.48ZM157.43,25.47l-2.23-6.58-2.23,6.58h4.46Z"/>
      <path class="cls-2" d="M181.48,31.91h-5.16l-2.94-5.87h-2.31v5.87h-4.51V14.43h8.75c1.89,0,3.37.55,4.46,1.65,1.08,1.1,1.62,2.49,1.62,4.17,0,1.4-.34,2.54-1.04,3.42s-1.51,1.49-2.45,1.82l3.56,6.42ZM174.64,22.11c.61,0,1.13-.17,1.55-.5.42-.33.63-.79.63-1.39s-.21-1.03-.63-1.36c-.42-.33-.94-.5-1.55-.5h-3.56v3.75h3.56Z"/>
    </g>
    <path class="cls-3" d="M44.1,20.88c-2.63.22-4.89.41-6.59.62-6.97.87-12.65,1.92-19.42,4.41-1.49.55-2.61,1.03-3.85,1.66-.19.1-.33.27-.38.46-.05,0-.1,0-.15,0,.24-.84.57-1.66.97-2.45.46-.96,1.07-1.84,1.88-2.55,1.28-1.16,2.61-1.62,4.02-.56.21.16.42.34.61.53.2.19.38.41.58.62h.01c-.16-.56-.43-1.1-.83-1.56-1.49-1.7-3.51-1.1-5.04.22-.92.77-1.65,1.75-2.15,2.83-.48.99-.85,2.05-1.02,3.15-1.01.46-1.72,1.48-1.72,2.66,0,.94.45,1.78,1.14,2.31-.83,2.17-1.66,5.67-.59,9.62.28,1.03.76-1.64,1.21-.78-1.59.13-2.06.84-5.89-1.91-.4-.29-1.07.71-1.47.41-1.02-.75-1.64-1.95-1.64-3.22,0-3.21-.07-6.47-.13-9.63-.06-2.98-.12-6.05-.13-9.07,0-1.6.77-3.1,2.08-4.01,4.87-3.4,10.62-7.33,16.36-10.61,1.28-.73,2.86-.7,4.12.08,2.67,1.65,5.45,3.3,8.14,4.9,2.89,1.71,5.87,3.48,8.71,5.25.83.52,1.35,1.47,1.41,2.62l.03.52c.06,1,.06,1.04.06,2.32h2.32c0-1.32,0-1.4-.06-2.4.44,1.04-1.44,3.44-2.6,3.53Z"/>
    <path class="cls-3" d="M44.41,29.36v1.49c.04,2.32.06,4,.04,6.7,0,.94-.48,1.8-1.26,2.31-6.89,4.5-12.71,8.15-18.31,11.46-.68.4-1.52.46-2.24.15-2.68-1.16-7.38-3.89-8.82-9.2-.95-3.5-.13-6.61.62-8.44,1.38-.23,2.43-1.43,2.43-2.88,0-.75-.28-1.43-.75-1.95,5.37.15,10.51.37,13.4.58.84.06,1.6.12,2.28.17,1.99.15,3.43.26,4.8.26,1.06,0,2.09-.07,3.31-.23,2.2-.29,4.49-.43,4.49-.43Z"/>
    <g>
      <path class="cls-4" d="M46.77,19.75h-2.32c0-1.28,0-1.31-.06-2.32l-.03-.52c-.06-1.15-.58-2.1-1.41-2.62-2.84-1.77-5.82-3.54-8.71-5.25-2.69-1.6-5.47-3.25-8.14-4.9-1.26-.78-2.84-.81-4.12-.08-5.74,3.29-11.49,7.21-16.36,10.61-1.31.92-2.09,2.42-2.08,4.01.01,3.02.07,6.09.13,9.07.06,3.16.12,6.42.13,9.63,0,1.27.62,2.47,1.64,3.22.4.29.8.59,1.2.88.8.58,1.65,1.21,1.65,1.21l1.11,2.39.67,1.72c-1.97-1.18-1.82-1.25-3.83-2.72-.32-.24-.65-.48-.98-.72-.4-.29-.79-.58-1.19-.87-1.62-1.18-2.59-3.09-2.59-5.09,0-.35,0-.71,0-1.07-.02-2.85-.07-5.73-.13-8.53-.06-2.96-.11-6.03-.13-9.04v-.06c-.01-2.36,1.14-4.58,3.07-5.93,0,0,0,0,0,0,4.59-3.21,9.97-6.88,15.41-10.07.37-.22.75-.44,1.12-.65,2.02-1.16,4.52-1.11,6.5.12.21.13.42.26.64.39,2.45,1.51,5,3.02,7.47,4.49,2.7,1.6,5.49,3.26,8.17,4.92.2.12.39.24.58.36,1.48.92,2.39,2.55,2.5,4.47l.03.52s0,.03,0,.04c.06,1,.06,1.08.06,2.4Z"/>
      <path class="cls-2" d="M23.96,1.2c1.16,0,2.33.32,3.36.96.21.13.42.26.64.39,2.45,1.51,5,3.02,7.47,4.49,2.7,1.6,5.49,3.26,8.17,4.92.2.12.39.24.58.36,1.48.92,2.39,2.55,2.5,4.47l.03.52s0,.03,0,.04c.06,1,.06,1.08.06,2.4h-2.32c0-1.28,0-1.31-.06-2.32l-.03-.52c-.06-1.15-.58-2.1-1.41-2.62-2.84-1.77-5.82-3.54-8.71-5.25-2.69-1.6-5.47-3.25-8.14-4.9-.65-.41-1.39-.61-2.13-.61-.69,0-1.37.18-1.99.53-5.74,3.29-11.49,7.21-16.36,10.61-1.31.92-2.09,2.42-2.08,4.01.01,3.02.07,6.09.13,9.07.06,3.16.12,6.42.13,9.63,0,1.27.62,2.47,1.64,3.22.4.29.8.59,1.2.88.8.58,1.65,1.21,1.65,1.21l1.11,2.39.67,1.72c-1.97-1.18-1.82-1.25-3.83-2.72-.32-.24-.65-.48-.98-.72-.4-.29-.79-.58-1.19-.87-1.62-1.18-2.59-3.09-2.59-5.09,0-.35,0-.71,0-1.07-.02-2.85-.07-5.73-.13-8.53-.06-2.96-.11-6.03-.13-9.04v-.06c-.01-2.36,1.14-4.58,3.07-5.93,0,0,0,0,0,0,4.59-3.21,9.97-6.88,15.41-10.07.37-.22.75-.44,1.12-.65.98-.56,2.06-.84,3.15-.84M23.97,0h0c-1.31,0-2.61.34-3.75,1-.38.22-.76.44-1.14.66-5.51,3.23-10.91,6.92-15.47,10.1,0,0-.02.01-.03.02C1.33,13.36-.01,15.94,0,18.7v.06c.01,3.08.08,6.26.13,9.06.05,2.64.11,5.64.13,8.51v1.06c.01,2.39,1.17,4.65,3.09,6.06l1.03.76.16.12.98.72c.67.49,1.1.82,1.44,1.09.7.54,1.12.87,2.48,1.69.19.11.4.17.62.17.28,0,.55-.1.78-.28.39-.33.53-.88.35-1.35l-.67-1.72s-.02-.05-.03-.07l-1.11-2.39c-.09-.19-.22-.35-.38-.47,0,0-.85-.62-1.65-1.2l-.44-.33-.76-.55c-.72-.52-1.14-1.36-1.15-2.25,0-3.19-.07-6.44-.13-9.58v-.08s0-.1,0-.1c-.06-2.94-.11-5.98-.13-8.96,0-1.2.58-2.33,1.57-3.02,4.84-3.38,10.56-7.28,16.27-10.55.42-.24.91-.37,1.39-.37.53,0,1.05.15,1.5.43,2.7,1.67,5.47,3.32,8.16,4.91,2.87,1.7,5.84,3.47,8.69,5.24.5.31.8.92.85,1.67l.03.52c.06.99.06,1.01.06,2.25,0,.66.54,1.2,1.2,1.2h2.32c.66,0,1.2-.54,1.2-1.2,0-1.34,0-1.45-.06-2.47v-.08s-.03-.48-.03-.48c-.13-2.31-1.25-4.29-3.07-5.42l-.59-.37c-2.68-1.66-5.47-3.32-8.17-4.92-2.35-1.39-4.99-2.96-7.47-4.49-.21-.13-.42-.26-.63-.39-1.2-.75-2.58-1.14-3.99-1.14h0Z"/>
    </g>
    <g>
      <path class="cls-4" d="M46.74,37.04c0,.22,0,.45,0,.68-.01,1.72-.88,3.31-2.31,4.25-.26.17-.52.34-.78.51-5.49,3.58-10.31,6.61-14.9,9.38-.91.55-1.82,1.09-2.72,1.63-.75.45-1.6.67-2.46.67-.64,0-1.29-.13-1.89-.39-1.19-.52-2.73-1.31-4.27-2.45-1.58-1.17-3.15-2.71-4.35-4.7-.15-.24-.29-.49-.42-.75-.45-.86-.83-1.8-1.11-2.83-1.07-3.95-.25-7.45.59-9.62.14-.37.28-.7.42-.98l2.11.97c-.08.17-.17.37-.25.58-.74,1.82-1.57,4.93-.62,8.44,1.44,5.31,6.15,8.04,8.82,9.2.72.31,1.55.25,2.24-.15,5.6-3.32,11.42-6.96,18.31-11.46.78-.51,1.25-1.38,1.26-2.31.02-2.7,0-4.38-.03-6.7v-1.1s2.31-.9,2.31-.9l.02,1.98c.02,2.13.04,3.72.03,6.05Z"/>
      <path class="cls-2" d="M46.69,29l.02,1.98c.02,2.13.04,3.72.03,6.05,0,.22,0,.45,0,.68-.01,1.72-.88,3.31-2.31,4.25-.26.17-.52.34-.78.51-5.49,3.58-10.31,6.61-14.9,9.38-.91.55-1.82,1.09-2.72,1.63-.75.45-1.6.67-2.46.67-.64,0-1.29-.13-1.89-.39-1.19-.52-2.73-1.31-4.27-2.45-1.58-1.17-3.15-2.71-4.35-4.7-.15-.24-.29-.49-.42-.75-.45-.86-.83-1.8-1.11-2.83-1.07-3.95-.25-7.45.59-9.62.14-.37.28-.7.42-.98l2.11.97c-.08.17-.17.37-.25.58-.74,1.82-1.57,4.93-.62,8.44,1.44,5.31,6.15,8.04,8.82,9.2.31.13.64.2.97.2.44,0,.88-.12,1.27-.35,5.6-3.32,11.42-6.96,18.31-11.46.78-.51,1.25-1.38,1.26-2.31.02-2.7,0-4.38-.03-6.7v-1.1s2.31-.9,2.31-.9M46.69,27.8c-.15,0-.3.03-.44.08l-2.32.9c-.47.18-.77.63-.77,1.13v1.1s.01.1.01.1c.02,2.28.04,3.93.03,6.58,0,.53-.27,1.02-.72,1.31-6.88,4.5-12.68,8.13-18.27,11.43-.2.12-.43.18-.66.18-.17,0-.33-.03-.49-.1-2.48-1.07-6.83-3.59-8.14-8.41-.84-3.11-.16-5.89.57-7.67.08-.19.16-.37.23-.53.28-.6.02-1.32-.59-1.6l-2.11-.97c-.16-.07-.33-.11-.5-.11-.14,0-.28.02-.42.07-.3.11-.54.34-.68.62-.16.34-.31.7-.45,1.06-.92,2.39-1.78,6.13-.63,10.36.29,1.06.69,2.1,1.2,3.07.14.28.3.55.45.81,1.14,1.9,2.71,3.6,4.66,5.04,1.36,1.01,2.87,1.88,4.51,2.59.75.32,1.54.49,2.36.49,1.08,0,2.14-.29,3.07-.84.9-.53,1.81-1.08,2.73-1.63,4.56-2.75,9.44-5.83,14.93-9.4l.39-.26.39-.25c1.78-1.16,2.84-3.12,2.86-5.25v-.68c.01-2.3,0-3.91-.03-5.95v-.13s-.02-1.98-.02-1.98c0-.4-.2-.76-.53-.98-.2-.14-.44-.21-.67-.21h0Z"/>
    </g>
    <g>
      <path class="cls-4" d="M13.95,34.3c-.75,0-1.46-.24-2.05-.7-.83-.64-1.3-1.6-1.3-2.65,0-1.23.68-2.36,1.76-2.95.17-.99.51-1.99,1.02-3.05.54-1.17,1.33-2.2,2.26-2.98,1.01-.87,2.13-1.36,3.15-1.36.94,0,1.8.41,2.48,1.19.42.48.73,1.05.92,1.71.06.19-.03.4-.2.49-.07.04-.14.06-.22.06-.12,0-.24-.05-.32-.14l-.14-.16c-.14-.16-.27-.31-.42-.45-.18-.18-.37-.35-.57-.49-.46-.35-.91-.51-1.36-.51-.65,0-1.34.34-2.12,1.04-.72.63-1.32,1.45-1.78,2.41-.2.39-.37.78-.52,1.17,1.08-.52,2.1-.95,3.4-1.43,6.81-2.51,12.52-3.56,19.52-4.44,1.7-.21,3.96-.4,6.58-.62,1.19-.1,2.42-.2,3.73-.32,1.46-.13,3.02-.27,4.67-.44.01,0,.1,0,.12,0,.35,0,.68.16.9.43.25.3.33.71.21,1.08-.39,1.25-.97,2.41-1.71,3.42-.81,1.1-1.83,2.05-3.04,2.83-3.07,1.98-6.75,2.47-8.95,2.76-1.21.16-2.25.23-3.37.23-1.37,0-2.79-.11-4.75-.26-.77-.06-1.52-.12-2.36-.18-2.71-.19-7.46-.4-12.54-.56.23.46.35.97.35,1.5,0,1.64-1.17,3.03-2.79,3.3-.18.03-.37.05-.56.05ZM13.95,29.93c-.56,0-1.02.46-1.02,1.02s.46,1.03,1.02,1.03,1.02-.46,1.02-1.03-.46-1.02-1.02-1.02ZM20.05,27.23c3.92.14,7.41.31,9.61.46.85.06,1.6.12,2.29.17,1.96.15,3.37.26,4.66.26,1.01,0,1.95-.07,3.06-.21,2.38-.32,5.99-.8,8.7-2.9.67-.52,1.25-1.11,1.72-1.76.24-.33.46-.68.66-1.05-.88.08-1.73.16-2.55.23-1.33.12-2.59.22-3.77.32l-.27.02c-2.56.22-4.77.4-6.4.6-6.38.8-11.66,1.74-17.71,3.85Z"/>
      <path class="cls-2" d="M52.57,20.12c.22,0,.43.1.57.27.16.19.21.45.13.68-.37,1.21-.93,2.32-1.65,3.3-.83,1.14-1.84,2.02-2.93,2.72-2.99,1.93-6.58,2.4-8.77,2.7-1.22.16-2.25.23-3.31.23-1.37,0-2.81-.11-4.8-.26-.68-.05-1.44-.11-2.28-.17-2.89-.21-8.03-.43-13.4-.58.47.52.75,1.2.75,1.95,0,1.45-1.05,2.65-2.43,2.88-.16.03-.32.04-.49.04-.67,0-1.29-.23-1.78-.61-.69-.53-1.14-1.37-1.14-2.31,0-1.18.7-2.2,1.72-2.66.17-1.11.54-2.16,1.02-3.15.51-1.09,1.23-2.07,2.15-2.83.86-.75,1.88-1.26,2.88-1.26.76,0,1.51.3,2.16,1.04.4.46.67.99.83,1.55h-.01c-.19-.21-.38-.42-.58-.62-.2-.19-.4-.37-.61-.53-.55-.42-1.09-.6-1.62-.6-.83,0-1.63.45-2.4,1.15-.8.7-1.42,1.59-1.88,2.55-.4.79-.73,1.61-.97,2.45.05,0,.1,0,.15,0,.05-.2.19-.37.38-.46,1.24-.63,2.36-1.11,3.85-1.66,6.77-2.5,12.45-3.54,19.42-4.41,1.69-.21,3.96-.4,6.59-.62,1.16-.1,2.4-.2,3.71-.32,1.46-.13,3.02-.27,4.68-.44.03,0,.05,0,.08,0M36.6,28.55c1.01,0,1.96-.06,3.12-.22,2.4-.32,6.11-.81,8.9-2.98.66-.52,1.28-1.12,1.81-1.85.41-.55.75-1.16,1.04-1.8-1.15.11-2.26.21-3.31.3-1.4.12-2.7.23-3.93.34-2.61.22-4.86.41-6.52.62-6.87.86-12.46,1.89-19.1,4.34-.27.1-.53.2-.78.29,4.77.15,9.19.35,11.79.53.85.06,1.6.12,2.29.17,2,.15,3.39.26,4.69.26M13.95,32.41c.8,0,1.45-.65,1.45-1.45s-.65-1.45-1.45-1.45-1.45.65-1.45,1.45.65,1.45,1.45,1.45M52.57,19.26c-.05,0-.11,0-.16,0-1.65.17-3.2.31-4.66.44-1.31.12-2.55.22-3.71.32h-.06c-2.61.22-4.87.41-6.56.63-5.32.67-9.9,1.43-14.78,2.86,0-.04-.01-.07-.02-.11-.21-.72-.55-1.35-1-1.87-.77-.88-1.74-1.34-2.81-1.34-1.12,0-2.34.52-3.44,1.47-.97.81-1.8,1.89-2.37,3.12-.49,1.01-.83,1.99-1.01,2.96-1.11.68-1.8,1.9-1.8,3.22,0,1.18.54,2.27,1.47,2.99.65.51,1.47.79,2.31.79.21,0,.43-.02.64-.06,1.82-.31,3.14-1.87,3.14-3.72,0-.36-.05-.71-.15-1.05,4.84.15,9.29.35,11.88.54.84.06,1.6.12,2.28.17h.06c1.98.16,3.42.26,4.81.26,1.14,0,2.2-.07,3.42-.24,2.23-.3,5.97-.8,9.12-2.82,1.26-.81,2.32-1.79,3.15-2.93.78-1.06,1.38-2.25,1.78-3.55.16-.51.05-1.06-.29-1.48-.3-.37-.75-.58-1.23-.58h0ZM22.44,26.89c5.11-1.59,9.82-2.39,15.37-3.08,1.63-.2,3.84-.39,6.4-.6h.09s.24-.03.24-.03c1.16-.1,2.39-.2,3.7-.32.56-.05,1.13-.1,1.71-.15-.07.1-.13.2-.2.29-.46.62-1.01,1.19-1.64,1.68-2.62,2.03-6.15,2.5-8.49,2.81-1.09.14-2.01.21-3,.21-1.27,0-2.68-.11-4.63-.26-.69-.05-1.45-.11-2.29-.17-1.74-.12-4.3-.26-7.24-.37h0ZM15.4,26.08s.03-.06.05-.1c.44-.93,1-1.7,1.68-2.29.7-.64,1.3-.94,1.84-.94.36,0,.72.14,1.1.43.17.12.34.27.53.46.12.12.24.25.36.39-1.03.33-2.08.69-3.16,1.09-.9.33-1.66.64-2.4.96h0ZM13.95,31.55c-.33,0-.6-.27-.6-.6s.27-.6.6-.6.6.27.6.6-.27.6-.6.6h0Z"/>
    </g>
    <circle class="cls-1" cx="57.72" cy="20.78" r="2.54"/>
  </g>
</svg>