<svg width="61" height="56" viewBox="0 0 61 56" fill="none" xmlns="http://www.w3.org/2000/svg">
<path d="M44.1 20.8899C41.47 21.1099 39.21 21.2999 37.51 21.5099C30.54 22.3799 24.86 23.4299 18.09 25.9199C16.6 26.4699 15.48 26.9499 14.24 27.5799C14.05 27.6799 13.9101 27.8499 13.8601 28.0399C13.8101 28.0399 13.7601 28.0399 13.7101 28.0399C13.9501 27.1999 14.28 26.3799 14.68 25.5899C15.14 24.6299 15.75 23.7499 16.56 23.0399C17.84 21.8799 19.17 21.4199 20.58 22.4799C20.79 22.6399 21.0001 22.8199 21.1901 23.0099C21.3901 23.1999 21.5701 23.4199 21.7701 23.6299H21.7801C21.6201 23.0699 21.3501 22.5299 20.9501 22.0699C19.4601 20.3699 17.44 20.9699 15.91 22.2899C14.99 23.0599 14.26 24.0399 13.76 25.1199C13.28 26.1099 12.91 27.1699 12.74 28.2699C11.73 28.7299 11.0201 29.7499 11.0201 30.9299C11.0201 31.8699 11.47 32.7099 12.16 33.2399C11.33 35.4099 10.5 38.9099 11.57 42.8599C11.85 43.8899 12.3301 41.2199 12.7801 42.0799C11.1901 42.2099 10.72 42.9199 6.89005 40.1699C6.49005 39.8799 5.82005 40.8799 5.42005 40.5799C4.40005 39.8299 3.78005 38.6299 3.78005 37.3599C3.78005 34.1499 3.71005 30.8899 3.65005 27.7299C3.59005 24.7499 3.53005 21.6799 3.52005 18.6599C3.52005 17.0599 4.29005 15.5599 5.60005 14.6499C10.47 11.2499 16.22 7.31994 21.96 4.03994C23.24 3.30994 24.82 3.33994 26.08 4.11994C28.75 5.76994 31.5301 7.41994 34.2201 9.01994C37.1101 10.7299 40.09 12.4999 42.93 14.2699C43.76 14.7899 44.28 15.7399 44.34 16.8899L44.37 17.4099C44.43 18.4099 44.43 18.4499 44.43 19.7299H46.75C46.75 18.4099 46.75 18.3299 46.69 17.3299C47.13 18.3699 45.25 20.7699 44.09 20.8599L44.1 20.8899Z" fill="#E51E2C"/>
<path d="M44.41 29.37V30.86C44.45 33.18 44.4701 34.86 44.4501 37.56C44.4501 38.5 43.97 39.36 43.19 39.87C36.3 44.37 30.48 48.02 24.88 51.33C24.2 51.73 23.36 51.79 22.64 51.48C19.96 50.32 15.26 47.59 13.82 42.28C12.87 38.78 13.69 35.67 14.44 33.84C15.82 33.61 16.87 32.41 16.87 30.96C16.87 30.21 16.59 29.53 16.12 29.01C21.49 29.16 26.63 29.38 29.5201 29.59C30.3601 29.65 31.12 29.71 31.8 29.76C33.79 29.91 35.23 30.02 36.6 30.02C37.66 30.02 38.69 29.95 39.91 29.79C42.11 29.5 44.4001 29.36 44.4001 29.36L44.41 29.37Z" fill="#E51E2C"/>
<path d="M46.7701 19.76H44.4501C44.4501 18.48 44.4501 18.45 44.39 17.44L44.3601 16.92C44.3 15.77 43.7801 14.82 42.9501 14.3C40.1101 12.53 37.1301 10.76 34.2401 9.05004C31.5501 7.45004 28.7701 5.80004 26.1001 4.15004C24.8401 3.37004 23.2601 3.34004 21.9801 4.07004C16.2401 7.36004 10.4901 11.28 5.62005 14.68C4.31005 15.6 3.53005 17.1 3.54005 18.69C3.55005 21.71 3.61005 24.78 3.67005 27.76C3.73005 30.92 3.79005 34.18 3.80005 37.39C3.80005 38.66 4.42005 39.86 5.44005 40.61C5.84005 40.9 6.24005 41.2 6.64005 41.49C7.44005 42.07 8.29005 42.7 8.29005 42.7L9.40005 45.09L10.0701 46.81C8.10005 45.63 8.25005 45.56 6.24005 44.09C5.92005 43.85 5.59005 43.61 5.26005 43.37C4.86005 43.08 4.47005 42.79 4.07005 42.5C2.45005 41.32 1.48005 39.41 1.48005 37.41C1.48005 37.06 1.48005 36.7 1.48005 36.34C1.46005 33.49 1.41005 30.61 1.35005 27.81C1.29005 24.85 1.24005 21.78 1.22005 18.77V18.71C1.21005 16.35 2.36005 14.13 4.29005 12.78C8.88005 9.57004 14.2601 5.90004 19.7001 2.71004C20.0701 2.49004 20.4501 2.27004 20.8201 2.06004C22.8401 0.90004 25.3401 0.95004 27.3201 2.18004C27.5301 2.31004 27.7401 2.44004 27.9601 2.57004C30.4101 4.08004 32.9601 5.59004 35.43 7.06004C38.1301 8.66004 40.92 10.32 43.6 11.98C43.8 12.1 43.9901 12.22 44.18 12.34C45.66 13.26 46.57 14.89 46.68 16.81L46.71 17.33C46.71 17.33 46.71 17.36 46.71 17.37C46.7701 18.37 46.7701 18.45 46.7701 19.77V19.76Z" fill="#E51E2C"/>
<path d="M23.9601 1.21C25.1201 1.21 26.2901 1.53 27.3201 2.17C27.5301 2.3 27.7401 2.43 27.9601 2.56C30.4101 4.07 32.9601 5.58 35.4301 7.05C38.1301 8.65 40.9201 10.31 43.6001 11.97C43.8001 12.09 43.9901 12.21 44.1801 12.33C45.6601 13.25 46.5701 14.88 46.6801 16.8L46.7101 17.32C46.7101 17.32 46.7101 17.35 46.7101 17.36C46.7701 18.36 46.7701 18.44 46.7701 19.76H44.4501C44.4501 18.48 44.4501 18.45 44.3901 17.44L44.3601 16.92C44.3001 15.77 43.7801 14.82 42.9501 14.3C40.1101 12.53 37.1301 10.76 34.2401 9.05C31.5501 7.45 28.7701 5.8 26.1001 4.15C25.4501 3.74 24.7101 3.54 23.9701 3.54C23.2801 3.54 22.6001 3.72 21.9801 4.07C16.2401 7.36 10.4901 11.28 5.62006 14.68C4.31006 15.6 3.53006 17.1 3.54006 18.69C3.55006 21.71 3.61006 24.78 3.67006 27.76C3.73006 30.92 3.79006 34.18 3.80006 37.39C3.80006 38.66 4.42006 39.86 5.44006 40.61C5.84006 40.9 6.24006 41.2 6.64006 41.49C7.44006 42.07 8.29006 42.7 8.29006 42.7L9.40005 45.09L10.0701 46.81C8.10005 45.63 8.25006 45.56 6.24006 44.09C5.92006 43.85 5.59006 43.61 5.26006 43.37C4.86006 43.08 4.47006 42.79 4.07006 42.5C2.45006 41.32 1.48006 39.41 1.48006 37.41C1.48006 37.06 1.48006 36.7 1.48006 36.34C1.46006 33.49 1.41006 30.61 1.35006 27.81C1.29006 24.85 1.24006 21.78 1.22006 18.77V18.71C1.21006 16.35 2.36006 14.13 4.29006 12.78C8.88006 9.57 14.2601 5.9 19.7001 2.71C20.0701 2.49 20.4501 2.27 20.8201 2.06C21.8001 1.5 22.8801 1.22 23.9701 1.22M23.9701 0.01C22.6601 0.01 21.3601 0.35 20.2201 1.01C19.8401 1.23 19.4601 1.45 19.0801 1.67C13.5701 4.9 8.17006 8.59 3.61006 11.77C3.61006 11.77 3.59006 11.78 3.58006 11.79C1.33006 13.37 -0.00994442 15.95 5.55779e-05 18.71V18.77C0.0100556 21.85 0.0800556 25.03 0.130056 27.83C0.180056 30.47 0.240056 33.47 0.260056 36.34V37.4C0.270056 39.79 1.43006 42.05 3.35006 43.46L4.38006 44.22L4.54006 44.34L5.52006 45.06C6.19006 45.55 6.62006 45.88 6.96006 46.15C7.66006 46.69 8.08006 47.02 9.44005 47.84C9.63005 47.95 9.84006 48.01 10.0601 48.01C10.3401 48.01 10.6101 47.91 10.8401 47.73C11.2301 47.4 11.3701 46.85 11.1901 46.38L10.5201 44.66C10.5201 44.66 10.5001 44.61 10.4901 44.59L9.38006 42.2C9.29006 42.01 9.16006 41.85 9.00006 41.73C9.00006 41.73 8.15006 41.11 7.35006 40.53L6.91006 40.2L6.15006 39.65C5.43006 39.13 5.01006 38.29 5.00006 37.4C5.00006 34.21 4.93006 30.96 4.87006 27.82V27.74V27.64C4.81006 24.7 4.76006 21.66 4.74006 18.68C4.74006 17.48 5.32006 16.35 6.31006 15.66C11.1501 12.28 16.8701 8.38 22.5801 5.11C23.0001 4.87 23.4901 4.74 23.9701 4.74C24.5001 4.74 25.0201 4.89 25.4701 5.17C28.1701 6.84 30.9401 8.49 33.6301 10.08C36.5001 11.78 39.4701 13.55 42.3201 15.32C42.8201 15.63 43.1201 16.24 43.1701 16.99L43.2001 17.51C43.2601 18.5 43.2601 18.52 43.2601 19.76C43.2601 20.42 43.8001 20.96 44.4601 20.96H46.7801C47.4401 20.96 47.9801 20.42 47.9801 19.76C47.9801 18.42 47.9801 18.31 47.9201 17.29V17.21L47.8901 16.73C47.7601 14.42 46.6401 12.44 44.8201 11.31L44.2301 10.94C41.5501 9.28 38.7601 7.62 36.0601 6.02C33.7101 4.63 31.0701 3.06 28.5901 1.53C28.3801 1.4 28.1701 1.27 27.9601 1.14C26.7601 0.39 25.3801 0 23.9701 0V0.01Z" fill="white"/>
<path d="M46.7401 37.05C46.7401 37.27 46.7401 37.5 46.7401 37.73C46.7301 39.45 45.8601 41.04 44.4301 41.98C44.1701 42.15 43.9101 42.32 43.6501 42.49C38.1601 46.07 33.3401 49.1 28.7501 51.87C27.8401 52.42 26.9301 52.96 26.0301 53.5C25.2801 53.95 24.4301 54.17 23.5701 54.17C22.9301 54.17 22.2801 54.04 21.6801 53.78C20.4901 53.26 18.9501 52.47 17.4101 51.33C15.8301 50.16 14.2601 48.62 13.0601 46.63C12.9101 46.39 12.7701 46.14 12.6401 45.88C12.1901 45.02 11.8101 44.08 11.5301 43.05C10.4601 39.1 11.2801 35.6 12.1201 33.43C12.2601 33.06 12.4001 32.73 12.5401 32.45L14.6501 33.42C14.5701 33.59 14.4801 33.79 14.4001 34C13.6601 35.82 12.8301 38.93 13.7801 42.44C15.2201 47.75 19.9301 50.48 22.6001 51.64C23.3201 51.95 24.1501 51.89 24.8401 51.49C30.4401 48.17 36.2601 44.53 43.1501 40.03C43.9301 39.52 44.4001 38.65 44.4101 37.72C44.4301 35.02 44.4101 33.34 44.3801 31.02V29.92L46.6901 29.02L46.7101 31C46.7301 33.13 46.7501 34.72 46.7401 37.05Z" fill="#E51E2C"/>
<path d="M46.6901 29.01L46.7101 30.99C46.7301 33.12 46.7501 34.71 46.7401 37.04C46.7401 37.26 46.7401 37.49 46.7401 37.72C46.7301 39.44 45.8601 41.03 44.4301 41.97C44.1701 42.14 43.9101 42.31 43.6501 42.48C38.1601 46.06 33.3401 49.09 28.7501 51.86C27.8401 52.41 26.9301 52.95 26.0301 53.49C25.2801 53.94 24.4301 54.16 23.5701 54.16C22.9301 54.16 22.2801 54.03 21.6801 53.77C20.4901 53.25 18.9501 52.46 17.4101 51.32C15.8301 50.15 14.2601 48.61 13.0601 46.62C12.9101 46.38 12.7701 46.13 12.6401 45.87C12.1901 45.01 11.8101 44.07 11.5301 43.04C10.4601 39.09 11.2801 35.59 12.1201 33.42C12.2601 33.05 12.4001 32.72 12.5401 32.44L14.6501 33.41C14.5701 33.58 14.4801 33.78 14.4001 33.99C13.6601 35.81 12.8301 38.92 13.7801 42.43C15.2201 47.74 19.9301 50.47 22.6001 51.63C22.9101 51.76 23.2401 51.83 23.5701 51.83C24.0101 51.83 24.4501 51.71 24.8401 51.48C30.4401 48.16 36.2601 44.52 43.1501 40.02C43.9301 39.51 44.4001 38.64 44.4101 37.71C44.4301 35.01 44.4101 33.33 44.3801 31.01V29.91L46.6901 29.01ZM46.6901 27.81C46.5401 27.81 46.3901 27.84 46.2501 27.89L43.9301 28.79C43.4601 28.97 43.1601 29.42 43.1601 29.92V31.02L43.1701 31.12C43.1901 33.4 43.2101 35.05 43.2001 37.7C43.2001 38.23 42.9301 38.72 42.4801 39.01C35.6001 43.51 29.8001 47.14 24.2101 50.44C24.0101 50.56 23.7801 50.62 23.5501 50.62C23.3801 50.62 23.2201 50.59 23.0601 50.52C20.5801 49.45 16.2301 46.93 14.9201 42.11C14.0801 39 14.7601 36.22 15.4901 34.44C15.5701 34.25 15.6501 34.07 15.7201 33.91C16.0001 33.31 15.7401 32.59 15.1301 32.31L13.0201 31.34C12.8601 31.27 12.6901 31.23 12.5201 31.23C12.3801 31.23 12.2401 31.25 12.1001 31.3C11.8001 31.41 11.5601 31.64 11.4201 31.92C11.2601 32.26 11.1101 32.62 10.9701 32.98C10.0501 35.37 9.19006 39.11 10.3401 43.34C10.6301 44.4 11.0301 45.44 11.5401 46.41C11.6801 46.69 11.8401 46.96 11.9901 47.22C13.1301 49.12 14.7001 50.82 16.6501 52.26C18.0101 53.27 19.5201 54.14 21.1601 54.85C21.9101 55.17 22.7001 55.34 23.5201 55.34C24.6001 55.34 25.6601 55.05 26.5901 54.5C27.4901 53.97 28.4001 53.42 29.3201 52.87C33.8801 50.12 38.7601 47.04 44.2501 43.47L44.6401 43.21L45.0301 42.96C46.8101 41.8 47.8701 39.84 47.8901 37.71V37.03C47.9001 34.73 47.8901 33.12 47.8601 31.08V30.95L47.8401 28.97C47.8401 28.57 47.6401 28.21 47.3101 27.99C47.1101 27.85 46.8701 27.78 46.6401 27.78L46.6901 27.81Z" fill="white"/>
<path d="M13.9501 34.3099C13.2001 34.3099 12.4901 34.0699 11.9001 33.6099C11.0701 32.9699 10.6001 32.0099 10.6001 30.9599C10.6001 29.7299 11.2801 28.5999 12.3601 28.0099C12.5301 27.0199 12.8701 26.0199 13.3801 24.9599C13.9201 23.7899 14.7101 22.7599 15.6401 21.9799C16.6501 21.1099 17.7701 20.6199 18.7901 20.6199C19.7301 20.6199 20.5901 21.0299 21.2701 21.8099C21.6901 22.2899 22.0001 22.8599 22.1901 23.5199C22.2501 23.7099 22.1601 23.9199 21.9901 24.0099C21.9201 24.0499 21.8501 24.0699 21.7701 24.0699C21.6501 24.0699 21.5301 24.0199 21.4501 23.9299L21.3101 23.7699C21.1701 23.6099 21.0401 23.4599 20.8901 23.3199C20.7101 23.1399 20.5201 22.9699 20.3201 22.8299C19.8601 22.4799 19.4101 22.3199 18.9601 22.3199C18.3101 22.3199 17.6201 22.6599 16.8401 23.3599C16.1201 23.9899 15.5201 24.8099 15.0601 25.7699C14.8601 26.1599 14.6901 26.5499 14.5401 26.9399C15.6201 26.4199 16.6401 25.9899 17.9401 25.5099C24.7501 22.9999 30.4601 21.9499 37.4601 21.0699C39.1601 20.8599 41.4201 20.6699 44.0401 20.4499C45.2301 20.3499 46.46 20.2499 47.7701 20.1299C49.23 19.9999 50.79 19.8599 52.44 19.6899C52.45 19.6899 52.5401 19.6899 52.5601 19.6899C52.91 19.6899 53.2401 19.8499 53.4601 20.1199C53.7101 20.4199 53.7901 20.8299 53.6701 21.1999C53.2801 22.4499 52.7001 23.6099 51.9601 24.6199C51.1501 25.7199 50.1301 26.6699 48.9201 27.4499C45.8501 29.4299 42.1701 29.9199 39.9701 30.2099C38.7601 30.3699 37.7201 30.4399 36.6 30.4399C35.23 30.4399 33.8101 30.3299 31.8501 30.1799C31.0801 30.1199 30.3301 30.0599 29.4901 29.9999C26.7801 29.8099 22.0301 29.5999 16.9501 29.4399C17.1801 29.8999 17.3001 30.4099 17.3001 30.9399C17.3001 32.5799 16.1301 33.9699 14.5101 34.2399C14.3301 34.2699 14.1401 34.2899 13.9501 34.2899V34.3099ZM13.9501 29.9399C13.3901 29.9399 12.9301 30.3999 12.9301 30.9599C12.9301 31.5199 13.3901 31.9899 13.9501 31.9899C14.5101 31.9899 14.9701 31.5299 14.9701 30.9599C14.9701 30.3899 14.5101 29.9399 13.9501 29.9399ZM20.0501 27.2399C23.9701 27.3799 27.4601 27.5499 29.6601 27.6999C30.5101 27.7599 31.2601 27.8199 31.9501 27.8699C33.9101 28.0199 35.3201 28.1299 36.6101 28.1299C37.6201 28.1299 38.56 28.0599 39.67 27.9199C42.05 27.5999 45.66 27.1199 48.37 25.0199C49.04 24.4999 49.62 23.9099 50.09 23.2599C50.3301 22.9299 50.5501 22.5799 50.7501 22.2099C49.8701 22.2899 49.0201 22.3699 48.2001 22.4399C46.87 22.5599 45.6101 22.6599 44.4301 22.7599L44.16 22.7799C41.6 22.9999 39.39 23.1799 37.76 23.3799C31.3801 24.1799 26.1001 25.1199 20.0501 27.2299V27.2399Z" fill="#E51E2C"/>
<path d="M52.57 20.13C52.7901 20.13 53 20.23 53.14 20.4C53.3 20.59 53.3501 20.85 53.2701 21.08C52.9001 22.29 52.34 23.4 51.62 24.38C50.79 25.52 49.78 26.4 48.69 27.1C45.7 29.03 42.11 29.5 39.92 29.8C38.7 29.96 37.67 30.03 36.6101 30.03C35.24 30.03 33.8 29.92 31.81 29.77C31.13 29.72 30.37 29.66 29.53 29.6C26.64 29.39 21.5 29.17 16.13 29.02C16.6 29.54 16.88 30.22 16.88 30.97C16.88 32.42 15.83 33.62 14.45 33.85C14.29 33.88 14.13 33.89 13.96 33.89C13.29 33.89 12.67 33.66 12.18 33.28C11.49 32.75 11.04 31.91 11.04 30.97C11.04 29.79 11.74 28.77 12.76 28.31C12.93 27.2 13.3 26.15 13.78 25.16C14.29 24.07 15.01 23.09 15.93 22.33C16.79 21.58 17.81 21.07 18.81 21.07C19.57 21.07 20.32 21.37 20.97 22.11C21.37 22.57 21.64 23.1 21.8 23.66H21.79C21.6 23.45 21.41 23.24 21.21 23.04C21.01 22.85 20.81 22.67 20.6 22.51C20.05 22.09 19.51 21.91 18.98 21.91C18.15 21.91 17.35 22.36 16.58 23.06C15.78 23.76 15.16 24.65 14.7 25.61C14.3 26.4 13.97 27.22 13.73 28.06C13.78 28.06 13.83 28.06 13.88 28.06C13.93 27.86 14.07 27.69 14.26 27.6C15.5 26.97 16.62 26.49 18.11 25.94C24.88 23.44 30.56 22.4 37.53 21.53C39.22 21.32 41.49 21.13 44.12 20.91C45.28 20.81 46.5201 20.71 47.8301 20.59C49.2901 20.46 50.85 20.32 52.51 20.15C52.54 20.15 52.5601 20.15 52.59 20.15M36.6 28.56C37.61 28.56 38.5601 28.5 39.7201 28.34C42.1201 28.02 45.83 27.53 48.62 25.36C49.28 24.84 49.9001 24.24 50.43 23.51C50.84 22.96 51.18 22.35 51.4701 21.71C50.32 21.82 49.21 21.92 48.16 22.01C46.76 22.13 45.46 22.24 44.23 22.35C41.62 22.57 39.37 22.76 37.71 22.97C30.84 23.83 25.25 24.86 18.61 27.31C18.34 27.41 18.08 27.51 17.83 27.6C22.6 27.75 27.02 27.95 29.62 28.13C30.47 28.19 31.22 28.25 31.91 28.3C33.91 28.45 35.3 28.56 36.6 28.56ZM13.95 32.42C14.75 32.42 15.4 31.77 15.4 30.97C15.4 30.17 14.75 29.52 13.95 29.52C13.15 29.52 12.5 30.17 12.5 30.97C12.5 31.77 13.15 32.42 13.95 32.42ZM52.57 19.27C52.5201 19.27 52.46 19.27 52.41 19.27C50.76 19.44 49.21 19.58 47.75 19.71C46.44 19.83 45.2001 19.93 44.0401 20.03H43.98C41.37 20.25 39.11 20.44 37.42 20.66C32.1 21.33 27.52 22.09 22.64 23.52C22.64 23.48 22.63 23.45 22.62 23.41C22.41 22.69 22.07 22.06 21.62 21.54C20.85 20.66 19.88 20.2 18.81 20.2C17.69 20.2 16.47 20.72 15.37 21.67C14.4 22.48 13.57 23.56 13 24.79C12.51 25.8 12.17 26.78 11.99 27.75C10.88 28.43 10.19 29.65 10.19 30.97C10.19 32.15 10.73 33.24 11.66 33.96C12.31 34.47 13.13 34.75 13.97 34.75C14.18 34.75 14.4 34.73 14.61 34.69C16.43 34.38 17.75 32.82 17.75 30.97C17.75 30.61 17.7 30.26 17.6 29.92C22.44 30.07 26.89 30.27 29.48 30.46C30.32 30.52 31.08 30.58 31.76 30.63H31.82C33.8 30.79 35.2401 30.89 36.6301 30.89C37.7701 30.89 38.83 30.82 40.05 30.65C42.28 30.35 46.02 29.85 49.17 27.83C50.43 27.02 51.49 26.04 52.32 24.9C53.1 23.84 53.7 22.65 54.1 21.35C54.26 20.84 54.1501 20.29 53.8101 19.87C53.5101 19.5 53.0601 19.29 52.5801 19.29L52.57 19.27ZM22.44 26.9C27.55 25.31 32.2601 24.51 37.8101 23.82C39.4401 23.62 41.65 23.43 44.21 23.22H44.3L44.5401 23.19C45.7001 23.09 46.93 22.99 48.2401 22.87C48.8001 22.82 49.37 22.77 49.9501 22.72C49.8801 22.82 49.82 22.92 49.75 23.01C49.2901 23.63 48.7401 24.2 48.1101 24.69C45.4901 26.72 41.96 27.19 39.62 27.5C38.53 27.64 37.61 27.71 36.62 27.71C35.35 27.71 33.94 27.6 31.99 27.45C31.3 27.4 30.5401 27.34 29.7001 27.28C27.9601 27.16 25.4 27.02 22.46 26.91L22.44 26.9ZM15.4 26.09C15.4 26.09 15.43 26.03 15.45 25.99C15.89 25.06 16.45 24.29 17.13 23.7C17.83 23.06 18.43 22.76 18.97 22.76C19.33 22.76 19.69 22.9 20.07 23.19C20.24 23.31 20.41 23.46 20.6 23.65C20.72 23.77 20.84 23.9 20.96 24.04C19.93 24.37 18.88 24.73 17.8 25.13C16.9 25.46 16.14 25.77 15.4 26.09ZM13.95 31.56C13.62 31.56 13.35 31.29 13.35 30.96C13.35 30.63 13.62 30.36 13.95 30.36C14.28 30.36 14.55 30.63 14.55 30.96C14.55 31.29 14.28 31.56 13.95 31.56Z" fill="white"/>
<path d="M57.7201 23.33C59.1229 23.33 60.2601 22.1928 60.2601 20.79C60.2601 19.3872 59.1229 18.25 57.7201 18.25C56.3173 18.25 55.1801 19.3872 55.1801 20.79C55.1801 22.1928 56.3173 23.33 57.7201 23.33Z" fill="url(#paint0_linear_44_3)"/>
<defs>
<linearGradient id="paint0_linear_44_3" x1="55.1801" y1="20.79" x2="60.2601" y2="20.79" gradientUnits="userSpaceOnUse">
<stop stop-color="#4DAF4E"/>
<stop offset="1" stop-color="#9ACA3C"/>
</linearGradient>
</defs>
</svg>
